<?xml version="1.0" encoding="utf-8"?>
<!-- Generator: Adobe Illustrator 19.2.1, SVG Export Plug-In . SVG Version: 6.00 Build 0)  -->
<svg version="1.1" id="Layer_1" xmlns="http://www.w3.org/2000/svg" xmlns:xlink="http://www.w3.org/1999/xlink" x="0px" y="0px"
	 viewBox="0 0 171 76" enable-background="new 0 0 171 76" xml:space="preserve">
<g>
	<polygon fill="#FFCB05" points="67.9,46.5 94.6,0 125.6,0 125.6,46.5 107,46.5 107,15.5 88.5,46.5 67.9,46.5 	"/>
	<polygon fill="#FFCB05" points="58,0 31.3,46.5 0.4,46.5 0.4,0 19,0 19,31 37.4,0 58,0 	"/>
	<polygon fill="#FFCB05" points="65.3,0 87.4,0 60.3,46.5 38.3,46.5 65.3,0 	"/>
	<path fill="#ED1C24" d="M152.5,46.4c0,0-0.3-10.4-0.3-11.1c0-0.8,0.4-0.9,1-0.6l9,2c0,0-1.1-3.6-1.3-4.2c-0.2-0.5,0-1.1,0.5-1.6
		c0.5-0.5,9.6-8.4,9.6-8.4s-2-1.5-2.5-1.9c-0.5-0.4-0.5-1-0.2-1.5c0.4-0.9,2.3-4.8,2.3-4.8s-4.2,1.1-5.1,1.3c-0.6,0.1-1.2,0-1.4-0.5
		c-0.3-0.6-1.4-2.8-1.4-2.8l0,0c0,0-2.5,2.4-4.7,4.3c-0.8,0.7-1.4,0-1.2-0.7c0.2-0.7,2.3-10.1,2.3-10.1s-3.1,0.8-3.7,1
		c-0.6,0.1-1.1-0.2-1.3-0.8C153.6,5.1,151,0,151,0s-2.7,5.1-3.1,5.9c-0.2,0.5-0.7,0.9-1.3,0.8c-0.6-0.1-3.7-1-3.7-1
		s2.1,9.4,2.3,10.1c0.2,0.7-0.4,1.4-1.2,0.7c-2.1-1.9-4.7-4.3-4.7-4.3l0,0c0,0-1.1,2.2-1.4,2.8c-0.3,0.6-0.9,0.7-1.4,0.5
		c-0.9-0.2-5.1-1.3-5.1-1.3s1.9,3.9,2.3,4.8c0.2,0.5,0.2,1.1-0.2,1.5c-0.5,0.4-2.5,1.9-2.5,1.9s9.1,7.9,9.6,8.4
		c0.5,0.5,0.7,1.1,0.5,1.6c-0.2,0.5-1.2,4.2-1.2,4.2l9-2c0.6-0.3,1-0.2,1,0.6c0,0.8-0.3,11.1-0.3,11.1H152.5L152.5,46.4z"/>
	<path fill="#ED1C24" d="M162.1,62.8c0,0,0-1.1,0-1.1c0-0.1,0-0.1,0.1-0.1l0.9,0.2c0,0-0.1-0.4-0.1-0.4c0-0.1,0-0.1,0.1-0.2
		c0-0.1,1-0.9,1-0.9s-0.2-0.2-0.3-0.2c-0.1,0-0.1-0.1,0-0.2c0-0.1,0.2-0.5,0.2-0.5s-0.4,0.1-0.5,0.1c-0.1,0-0.1,0-0.1-0.1
		c0-0.1-0.1-0.3-0.1-0.3l0,0c0,0-0.3,0.2-0.5,0.4c-0.1,0.1-0.1,0-0.1-0.1c0-0.1,0.2-1,0.2-1s-0.3,0.1-0.4,0.1c-0.1,0-0.1,0-0.1-0.1
		c0-0.1-0.3-0.6-0.3-0.6s-0.3,0.5-0.3,0.6c0,0.1-0.1,0.1-0.1,0.1c-0.1,0-0.4-0.1-0.4-0.1s0.2,1,0.2,1c0,0.1,0,0.1-0.1,0.1
		c-0.2-0.2-0.5-0.4-0.5-0.4l0,0c0,0-0.1,0.2-0.1,0.3c0,0.1-0.1,0.1-0.1,0.1c-0.1,0-0.5-0.1-0.5-0.1s0.2,0.4,0.2,0.5
		c0,0.1,0,0.1,0,0.2c0,0-0.3,0.2-0.3,0.2s0.9,0.8,1,0.9c0.1,0.1,0.1,0.1,0.1,0.2c0,0.1-0.1,0.4-0.1,0.4l0.9-0.2c0.1,0,0.1,0,0.1,0.1
		c0,0.1,0,1.1,0,1.1H162.1L162.1,62.8z"/>
	<polygon fill="#ED1C24" points="159.3,63.3 159.3,57.6 156.6,57.6 156.6,63.3 159.3,63.3 	"/>
	<polygon fill="#ED1C24" points="167.2,63.3 167.2,57.6 164.5,57.6 164.5,63.3 167.2,63.3 	"/>
	<g>
		<path fill-rule="evenodd" clip-rule="evenodd" fill="#FFFFFF" d="M25.7,75.3c-0.7-0.2-1.4-0.8-1.4-2.4c0-0.5,0-3.5,0-4.9
			c0-0.3,0-0.5,0-0.6c0-2,0-6.7,0-7.2c0-1.6,0.6-2.1,1.4-2.4c0.5-0.2,0.5-0.4,0-0.4h-5.1c-0.5,0-0.5,0.2,0,0.4
			c0.8,0.2,1.2,0.7,1.2,2.4c0,0.6,0,5.3,0,7.1c0,0.1,0,0.3,0,0.6c0,1.4,0,4.3,0,4.9c0,1.8-0.4,2.2-1.2,2.4c-0.5,0.2-0.5,0.4,0,0.4
			h5.1C26.2,75.7,26.2,75.4,25.7,75.3L25.7,75.3z"/>
		<path fill="#FFFFFF" d="M19.3,57.4c0.7,0,0.1,0.3,0.1,0.3c-0.4,0.1-0.8,0.4-0.8,0.4c-1,0.5-1.9,3-1.9,3
			c-2.1,4.8-6.3,14.1-6.5,14.3c-0.2,0.3-0.3,0.4-0.5,0.4c-0.4,0-0.7-0.1-1-0.9C7.2,70.9,4,63.1,3.4,61.6c-1-2.2-0.9-3.1-2.9-3.7
			c-0.2-0.1-0.9-0.3-0.1-0.5c0.1,0,3,0,4.7,0l3,0c0.6,0.1-0.5,0.5-0.5,0.5c-1.4,0.3-1.9,1.2-1.9,2.1c0,0.6,0.2,1,0.9,2.8
			c1.3,3.2,2.6,6.3,3.7,9.5c0,0,1.2-2.8,1.8-3.9l2.9-6.7c0.3-0.7,0.7-1.6,0.7-2.3c0-0.7-0.7-1.5-1.2-1.6c0,0-1-0.3-0.2-0.4
			c0,0,2.1,0,2.2,0C17.3,57.5,18.6,57.4,19.3,57.4"/>
		<path fill="#FFFFFF" d="M38,67.8c-0.9,0.1-1.8,0.1-2.6,0.1c-0.2,0-1.8,0-2.6-0.1l2.7-6.7L38,67.8L38,67.8z M27.1,75.3
			c-0.7,0.3-0.2,0.4-0.2,0.4s4.4,0,5,0c0.6,0,0.3-0.3,0.3-0.3c-1-0.2-1.4-1.2-1.4-1.7c0-0.4,0.4-1.4,0.6-1.9c0.3-0.8,0.6-1.7,1-2.5
			c1.1-0.1,2-0.1,3-0.1c1,0,2.1,0.1,3.1,0.1c0.4,1.1,1,2.7,1.4,3.8c0.1,0.3,0.2,0.5,0.2,0.8c0,0.2-0.1,0.4-0.2,0.6
			c0,0-0.2,0.6-1,0.8c0,0-0.7,0.3-0.4,0.5l0.5,0.1c1.3,0,2.2,0,3.5,0c0.6,0,1.3,0,1.9,0l0.7,0c0.7-0.1-0.3-0.4-0.3-0.4
			c-1.3-0.3-1.7-1-1.9-1.3c-0.2-0.4-0.3-0.6-0.8-2.1L36.8,58c-0.2-0.4-0.2-0.5-0.5-0.5c-0.4,0-0.4,0-0.6,0.5l-4.8,12
			c-1.3,3-1.8,3.9-2.4,4.5C27.6,75.2,27.1,75.3,27.1,75.3L27.1,75.3z"/>
		<path fill="#FFFFFF" d="M76.6,74.5c-0.2,0.2-0.4,0.6-1,0.6c-0.7,0-1.1-0.5-1.1-1.5c0-0.5,0-4.7,0-5.8c0-1.3,0.3-3.6-4-3.6
			c-2.2,0-4.2,0.7-4.2,2c0,0.7,0.6,1.1,1,1.1c2,0,0.6-2.6,2.8-2.6c1.8,0,2,1.7,2,2.4c0,1.3-0.1,1.7-0.9,2.2
			c-1.6,0.9-5.5,0.3-5.5,3.6c0,2.5,2.7,2.9,3.7,2.9c1.2,0,1.9-0.4,2.7-1.1c0.9,0.8,1.3,1.1,2.6,1.1c1.2,0,1.8-0.4,2.2-1.1
			C77.2,74.4,76.8,74.2,76.6,74.5L76.6,74.5z M72.1,72.8c0,1.6-1.2,2.4-2.1,2.4c-0.8,0-1.9-0.6-1.9-1.8c0-2,2-2.8,3.4-3.5
			c0.1,0,0.2-0.1,0.4-0.2c0.2-0.1,0.2,0,0.2,0.3C72.1,70.2,72.1,72.1,72.1,72.8L72.1,72.8z"/>
		<path fill="#FFFFFF" d="M78.4,59.1c0-0.8,0.6-1.4,1.4-1.4c0.8,0,1.4,0.6,1.4,1.4c0,0.8-0.6,1.4-1.4,1.4c-0.4,0-0.7-0.2-1-0.4
			C78.5,59.8,78.4,59.4,78.4,59.1L78.4,59.1z"/>
		<path fill="#FFFFFF" d="M82.6,75.3c-0.7-0.2-1.4-0.8-1.4-2.4c0-0.8,0-5.3,0-5.7h0c0-1,0-1.8,0-1.9c0-0.7,0.1-0.9-0.6-0.8
			c-0.5,0.1-3.5,0.2-3.9,0.3C76.3,64.8,76.6,65,77,65c1.3,0,1.7,1.2,1.8,2.7c0,1.3,0,4.6,0,5.2c0,1.8-0.4,2.2-1.2,2.4
			c-0.5,0.1-0.5,0.4,0,0.4h5.1C83.2,75.7,83.1,75.4,82.6,75.3L82.6,75.3z"/>
		<path fill="#FFFFFF" d="M89,75.3c-0.7-0.2-1.4-0.8-1.4-2.4c0-0.6,0-3.5,0-5h0c0-2.7,0-4.9,0-6.7h0c0-1.4,0-2.8,0-2.9
			c0-0.7,0.1-0.9-0.6-0.8c-0.5,0.1-3.5,0.2-3.9,0.3c-0.5,0.1-0.2,0.3,0.2,0.3c1.5,0,1.8,1.7,1.8,3.4h0c0,0.7,0,1.6,0,2.2v3.4h0
			c0,0.5,0,5,0,5.7c0,1.8-0.4,2.2-1.2,2.4c-0.5,0.1-0.5,0.4,0,0.4H89C89.5,75.6,89.5,75.4,89,75.3L89,75.3z"/>
		<path fill="#FFFFFF" d="M66.1,75.3c-0.7-0.2-1.8-0.3-3.4-2.4l0,0c-0.2-0.3-0.5-0.6-0.7-0.9c-0.4-0.5-3.1-4-3.7-4.8
			c1.9-0.5,3.2-1.1,4.1-2.5c0.2-0.2,0.6-0.9,0.6-2.1c0-2.3-1.5-3.5-2.4-4.1c-1.1-0.7-2.5-1.1-4.2-1.1c0,0-2.5,0-2.9,0
			c-0.4,0-3.5,0.2-3.9,0.2C49,57.7,49.3,58,49.7,58c1.4,0,1.7,1.6,1.8,3.2c0,0.1,0,0.1,0,0.2c0,3,0,5.3,0,7h0c0,1.5-0.2,3.8-0.2,4.2
			c0,1.8-0.4,2.3-1.2,2.6c-0.5,0.1-0.5,0.4,0,0.4h5.2c0.5,0,0.5-0.2,0-0.4c-0.7-0.2-1.4-0.9-1.4-2.6c0-0.5,0-2.6,0-4.1h0
			c0-0.4,0-0.8,0-1.1c1.7,0,1.8,0.1,3,1.7c0.8,1,4.4,5.9,4.9,6.4c0.1,0.1,0.2,0.2,0.3,0.2c0.4,0,0.8,0,1.2,0l2.8,0
			C66.7,75.7,66.6,75.5,66.1,75.3L66.1,75.3z M55.6,66.7c-0.6,0-1.1,0-1.7-0.1v-8.1c0.7-0.1,1.1-0.1,1.6-0.1c1.2,0,2.6,0.2,3.5,1
			c0.7,0.8,1.2,2,1.2,3.1C60.2,64.8,58.8,66.7,55.6,66.7L55.6,66.7z"/>
		<path fill="#FFFFFF" d="M144.1,74.4c-0.2,0.2-0.4,0.6-1,0.6c-0.7,0-1.1-0.5-1.1-1.5c0-0.5,0-4.7,0-5.8c0-1.3,0.3-3.6-4-3.6
			c-2.2,0-4.2,0.7-4.2,2c0,0.7,0.6,1.1,1,1.1c2,0,0.6-2.6,2.8-2.6c1.8,0,2,1.7,2,2.4c0,1.3-0.1,1.7-0.9,2.2
			c-1.6,0.9-5.5,0.3-5.5,3.6c0,2.5,2.7,2.9,3.7,2.9c1.2,0,1.9-0.4,2.7-1.1c0.9,0.8,1.3,1.1,2.6,1.1c1.2,0,1.8-0.4,2.2-1.1
			C144.7,74.3,144.3,74.1,144.1,74.4L144.1,74.4z M139.6,72.7c0,1.6-1.2,2.4-2.1,2.4c-0.8,0-1.9-0.6-1.9-1.8c0-2,2-2.8,3.4-3.5
			c0.1,0,0.2-0.1,0.4-0.2c0.2-0.1,0.2,0,0.2,0.3C139.6,70.2,139.6,72.1,139.6,72.7L139.6,72.7z"/>
		<path fill="#FFFFFF" d="M123.2,64.3c-0.3,0.1-2.8,0.4-3,0.4c-0.4,0.1-0.4,0.4,0,0.4c1.1,0,1.5,1.4,1.5,2.2c0,0.5,0,4.7,0,5.5
			c0,1.8-0.4,2.2-1.2,2.4c-0.5,0.1-0.5,0.4,0,0.4h4.9c0.5,0,0.5-0.2,0-0.4c-0.7-0.2-1.4-0.8-1.4-2.4c0-0.8,0-3.1,0-3.6
			c0-3.4,1.4-4.2,2.9-4.2c1.8,0,2.1,1.4,2.1,3c0,0.5,0,4,0,4.8c0,1.8-0.4,2.2-1.2,2.4c-0.5,0.1-0.5,0.4,0,0.4h5.1
			c0.5,0,0.5-0.2,0-0.4c-0.7-0.2-1.4-0.8-1.4-2.4c0-0.8,0-4.3,0-4.8c0-2-0.3-3.7-3.3-3.7c-1.6,0-2.9,0.3-3.7,1
			c-0.3,0.3-0.5,0.4-0.6,0C123.8,64.6,123.8,64.2,123.2,64.3L123.2,64.3z"/>
		<path fill="#FFFFFF" d="M119.8,74.4c-0.2,0.2-0.4,0.6-1,0.6c-0.7,0-1.1-0.5-1.1-1.5c0-0.5,0-4.7,0-5.8c0-1.3,0.3-3.6-4-3.6
			c-2.2,0-4.2,0.7-4.2,2c0,0.7,0.6,1.1,1,1.1c2,0,0.6-2.6,2.8-2.6c1.8,0,2,1.7,2,2.4c0,1.3-0.1,1.7-0.9,2.2
			c-1.6,0.9-5.5,0.3-5.5,3.6c0,2.5,2.7,2.9,3.7,2.9c1.2,0,1.9-0.4,2.7-1.1c0.9,0.8,1.3,1.1,2.6,1.1c1.2,0,1.8-0.4,2.2-1.1
			C120.4,74.3,120,74.1,119.8,74.4L119.8,74.4z M115.3,72.7c0,1.6-1.2,2.4-2.1,2.4c-0.8,0-1.9-0.6-1.9-1.8c0-2,2-2.8,3.4-3.5
			c0.1,0,0.2-0.1,0.4-0.2c0.2-0.1,0.2,0,0.2,0.3C115.3,70.2,115.3,72.1,115.3,72.7L115.3,72.7z"/>
		<path fill="#FFFFFF" d="M156.8,75c-0.9-0.1-1.5-1-1.5-2.6c0-0.8,0-13.7,0-14.2c0-0.7,0.1-0.9-0.6-0.8c-0.5,0.1-3.5,0.2-3.9,0.3
			c-0.5,0.1-0.2,0.3,0.2,0.3c1.5,0,1.9,1.1,1.9,2.8c0,0.9,0,3.6,0,3.9c0,0.2-0.1,0.5-0.3,0.3c-0.3-0.2-1.3-0.9-2.4-0.9
			c-3.9,0-6,2.6-6,5.7c0,4.1,2.5,6,6,6c1.1,0,2.2-0.6,2.6-0.9c0.1-0.1,0.3-0.1,0.4,0.2c0.1,0.5,0,0.7,0.7,0.6c0.6-0.1,2.7-0.4,3-0.4
			C157.2,75.3,157.1,75,156.8,75L156.8,75z M150.4,75.1c-3.1,0-3.7-3.8-3.7-5.2c0-3.9,2.1-5.2,3.5-5.2c1.2,0,2.2,0.8,2.6,2.4
			c0.2,0.7,0.2,2.3,0.2,3.9C153,72.2,152.8,75.1,150.4,75.1L150.4,75.1z"/>
		<path fill="#FFFFFF" d="M107.3,57.7c-0.2,0.5-0.2,0.5-0.6,0.5c-0.7,0-1.9-0.9-4.2-0.9c-5.5,0-9.2,4.4-9.2,9.7c0,4.7,3.5,9,8.6,9
			c3.8,0,6.1-2.2,6.9-5.5c0.1-0.7-0.5-0.9-0.7-0.2c-0.8,3.2-2.7,4.8-5.4,4.8c-4,0-6.1-3.1-6.1-7.8c0-6.8,3.3-9.3,5.7-9.3
			c3.4,0,4.1,2.8,5,5c0.1,0.4,0.2,0.8,0.5,0.7c0.3,0,0.2,0,0.2-0.6c0-1-0.3-4.3-0.3-5.1C107.9,57.3,107.4,57.4,107.3,57.7
			L107.3,57.7z"/>
		<path fill="#FFFFFF" d="M168.4,74.7c0.2-0.3-0.2-0.6-0.4-0.3c-0.2,0.2-0.4,0.6-1,0.6c-0.7,0-1.1-0.5-1.1-1.5c0-0.5,0-4.7,0-5.8
			c0-1.3,0.3-3.6-4-3.6c-2.2,0-4.2,0.7-4.2,2c0,0.7,0.6,1.1,1,1.1c2,0,0.6-2.6,2.8-2.6c1.8,0,2,1.7,2,2.4c0,1.3-0.1,1.7-0.9,2.2
			c-1.6,0.9-5.5,0.3-5.5,3.6c0,2.5,2.7,2.9,3.7,2.9c1.2,0,1.9-0.4,2.7-1.1c0.9,0.8,1.3,1.1,2.6,1.1
			C167.4,75.7,168.1,75.3,168.4,74.7L168.4,74.7z M163.5,72.7c0,1.6-1.2,2.4-2.1,2.4c-0.8,0-1.9-0.6-1.9-1.8c0-2,2-2.8,3.4-3.5
			c0.1,0,0.3-0.1,0.4-0.2c0.2-0.1,0.2,0,0.2,0.3C163.5,70.2,163.5,72.1,163.5,72.7L163.5,72.7z"/>
	</g>
</g>
</svg>
